<?xml version="1.0" encoding="utf-8"?>
<!-- Generator: Adobe Illustrator 27.0.0, SVG Export Plug-In . SVG Version: 6.00 Build 0)  -->
<svg version="1.1" id="Layer_1" xmlns="http://www.w3.org/2000/svg" xmlns:xlink="http://www.w3.org/1999/xlink" x="0px" y="0px"
	 viewBox="0 0 28 27.3" style="enable-background:new 0 0 28 27.3;" xml:space="preserve">
<style type="text/css">
	.st0{fill-rule:evenodd;clip-rule:evenodd;fill:#191717;}
	.st1{fill:#191717;}
</style>
<path class="st0" d="M14,1C6.8,1,1,6.8,1,14c0,5.7,3.7,10.6,8.9,12.3c0.6,0.1,0.9-0.3,0.9-0.6c0-0.3,0-1.3,0-2.4
	c-3.6,0.8-4.4-1.5-4.4-1.5c-0.6-1.5-1.4-1.9-1.4-1.9C3.8,19,5,19,5,19c1.3,0.1,2,1.3,2,1.3c1.2,2,3,1.4,3.8,1.1
	c0.1-0.8,0.5-1.4,0.8-1.7c-2.9-0.3-5.9-1.4-5.9-6.4c0-1.4,0.5-2.6,1.3-3.5C6.9,9.5,6.5,8.2,7.2,6.4c0,0,1.1-0.3,3.6,1.3
	c1-0.3,2.1-0.4,3.3-0.4c1.1,0,2.2,0.1,3.3,0.4c2.5-1.7,3.6-1.3,3.6-1.3c0.7,1.8,0.3,3.1,0.1,3.4c0.8,0.9,1.3,2.1,1.3,3.5
	c0,5-3,6.1-5.9,6.4c0.5,0.4,0.9,1.2,0.9,2.4c0,1.7,0,3.1,0,3.6c0,0.3,0.2,0.8,0.9,0.6C23.3,24.6,27,19.7,27,14C27,6.8,21.2,1,14,1z"
	/>
<path class="st1" d="M5.3,20.1c0,0.1-0.1,0.1-0.2,0c-0.1,0-0.2-0.1-0.1-0.2c0-0.1,0.1-0.1,0.2,0C5.3,19.9,5.3,20,5.3,20.1
	C5.3,20.1,5.3,20.1,5.3,20.1z"/>
<path class="st1" d="M5.9,20.7c-0.1,0.1-0.2,0-0.3-0.1c-0.1-0.1-0.1-0.2,0-0.3c0.1-0.1,0.2,0,0.3,0.1C5.9,20.5,5.9,20.7,5.9,20.7
	C5.9,20.7,5.9,20.7,5.9,20.7z"/>
<path class="st1" d="M6.4,21.5c-0.1,0.1-0.2,0-0.3-0.1c-0.1-0.1-0.1-0.3,0-0.3c0.1-0.1,0.2,0,0.3,0.1C6.5,21.3,6.5,21.5,6.4,21.5
	C6.4,21.5,6.4,21.5,6.4,21.5z"/>
<path class="st1" d="M7.2,22.3c-0.1,0.1-0.2,0.1-0.4-0.1c-0.1-0.1-0.2-0.3-0.1-0.4C6.8,21.8,7,21.8,7.1,22
	C7.2,22.1,7.3,22.2,7.2,22.3C7.2,22.3,7.2,22.3,7.2,22.3z"/>
<path class="st1" d="M8.2,22.8c0,0.1-0.2,0.2-0.3,0.1c-0.2,0-0.3-0.2-0.2-0.3c0-0.1,0.2-0.2,0.4-0.1C8.2,22.5,8.3,22.7,8.2,22.8
	C8.2,22.8,8.2,22.8,8.2,22.8z"/>
<path class="st1" d="M9.4,22.9c0,0.1-0.1,0.2-0.3,0.2c-0.2,0-0.3-0.1-0.3-0.2c0-0.1,0.1-0.2,0.3-0.2C9.2,22.6,9.4,22.7,9.4,22.9
	L9.4,22.9z"/>
<path class="st1" d="M10.4,22.7c0,0.1-0.1,0.2-0.3,0.3c-0.2,0-0.3,0-0.3-0.2c0-0.1,0.1-0.2,0.3-0.3C10.3,22.5,10.4,22.6,10.4,22.7
	C10.4,22.7,10.4,22.7,10.4,22.7z"/>
</svg>
