<?xml version="1.0" encoding="UTF-8"?>
<svg id="svg2" xmlns="http://www.w3.org/2000/svg" xmlns:xlink="http://www.w3.org/1999/xlink" viewBox="0 0 28 28">
  <defs>
    <style>
      .cls-1 {
        fill: url(#linear-gradient-2);
      }

      .cls-2 {
        fill: url(#linear-gradient);
      }
    </style>
    <linearGradient id="linear-gradient" x1="604.059411" y1="-541.343803" x2="626.725929" y2="-560.845295" gradientTransform="translate(-337.931452 -304.486613) scale(.562541 -.567972)" gradientUnits="userSpaceOnUse">
      <stop offset="0" stop-color="#5a9fd4"/>
      <stop offset="1" stop-color="#306998"/>
    </linearGradient>
    <linearGradient id="linear-gradient-2" x1="635.488953" y1="-572.648413" x2="627.394753" y2="-561.196513" gradientTransform="translate(-337.931452 -304.486613) scale(.562541 -.567972)" gradientUnits="userSpaceOnUse">
      <stop offset="0" stop-color="#ffd43b"/>
      <stop offset="1" stop-color="#ffe873"/>
    </linearGradient>
  </defs>
  <path id="path1948" class="cls-2" d="M13.86238,2.316311c-.953027,.004428-1.863145,.085708-2.663957,.227411-2.359089,.416773-2.787408,1.289116-2.787409,2.897865v2.124668h5.574817v.708223H6.318835c-1.620197,0-3.038888,.973832-3.482637,2.826393-.511858,2.123466-.534562,3.448542,0,5.665781,.396278,1.650427,1.342643,2.826393,2.96284,2.826393h1.916749v-2.547003c0-1.840059,1.592063-3.463143,3.482636-3.463144h5.56832c1.550024,0,2.78741-1.276238,2.787409-2.832891V5.441587c0-1.510807-1.274537-2.645717-2.787409-2.897865-.95767-.159416-1.951335-.231839-2.904363-.227411Zm-3.014819,1.708831c.57584,0,1.04609,.477931,1.04609,1.065583,0,.585569-.47025,1.059085-1.04609,1.059085-.577905,0-1.04609-.473517-1.04609-1.059085,0-.587651,.468186-1.065583,1.04609-1.065583Z"/>
  <path id="path1950" class="cls-1" d="M20.249379,8.274477v2.475531c0,1.919245-1.627149,3.534616-3.482636,3.534616h-5.56832c-1.525256,0-2.787408,1.305413-2.787409,2.832891v5.308421c0,1.510806,1.313752,2.399447,2.787409,2.832891,1.764674,.518883,3.456903,.612658,5.56832,0,1.403482-.406354,2.78741-1.224144,2.787409-2.832891v-2.124668h-5.56832v-.708223h8.35573c1.620197,0,2.223949-1.130123,2.787405-2.826393,.582033-1.746285,.557268-3.42562,0-5.665781-.400404-1.612916-1.165148-2.826393-2.787405-2.826393h-2.092182Zm-3.131774,13.443236c.577906,.000002,1.04609,.473518,1.04609,1.059085,0,.58765-.468185,1.065583-1.04609,1.065583-.57584,0-1.04609-.477933-1.04609-1.065583,0-.585567,.470249-1.059085,1.04609-1.059085Z"/>
</svg>